<?xml version='1.0' encoding='utf-8'?>
<mxfile host="app.diagrams.net" modified="2025-09-20T00:00:00.000Z" version="22.1.11">
  <diagram name="AWS Network Architecture" id="network_template">
    <mxGraphModel dx="2500" dy="1600" grid="1" gridSize="10" guides="1" tooltips="1" connect="1" arrows="1" fold="1" page="1" pageScale="1" pageWidth="1400" pageHeight="1000">
      <root>
        <mxCell id="0" />
        <mxCell id="1" parent="0" />
        
        
        <mxCell id="title" value="BMC Architecture - AWS Senior Level" style="text;html=1;strokeColor=none;fillColor=none;align=center;verticalAlign=middle;whiteSpace=wrap;rounded=0;fontSize=18;fontStyle=1;fontColor=#1976D2;" vertex="1" parent="1">
          <mxGeometry x="400" y="20" width="600" height="30" as="geometry" />
        </mxCell>
        
        
        <mxCell id="cloudfront" value="CloudFront CDN\n200+ edge locations\nSSL/TLS 1.3" style="shape=mxgraph.aws4.cloudfront;labelPosition=bottom;verticalLabelPosition=top;align=center;verticalAlign=bottom;fillColor=#E3F2FD;strokeColor=#1976D2;fontColor=#0D47A1;" vertex="1" parent="1">
          <mxGeometry x="150" y="150" width="78" height="78" as="geometry" />
        </mxCell>
        
        <mxCell id="waf" value="AWS WAF\nDDoS protection\nRate limiting: 2K/s" style="shape=mxgraph.aws4.waf;labelPosition=bottom;verticalLabelPosition=top;align=center;verticalAlign=bottom;fillColor=#FFEBEE;strokeColor=#D32F2F;fontColor=#B71C1C;" vertex="1" parent="1">
          <mxGeometry x="350" y="150" width="78" height="78" as="geometry" />
        </mxCell>
        
        <mxCell id="api_gateway" value="API Gateway\n10K req/s throttle\nCaching: 300s TTL" style="shape=mxgraph.aws4.api_gateway;labelPosition=bottom;verticalLabelPosition=top;align=center;verticalAlign=bottom;fillColor=#E3F2FD;strokeColor=#1976D2;fontColor=#0D47A1;" vertex="1" parent="1">
          <mxGeometry x="550" y="150" width="78" height="78" as="geometry" />
        </mxCell>
        
        
        <mxCell id="invoice_service" value="Invoice Service\n2vCPU/4GB\nBlue/Green deploy" style="shape=mxgraph.aws4.fargate;labelPosition=bottom;verticalLabelPosition=top;align=center;verticalAlign=bottom;fillColor=#FFF3E0;strokeColor=#FF9800;fontColor=#E65100;" vertex="1" parent="1">
          <mxGeometry x="200" y="400" width="78" height="78" as="geometry" />
        </mxCell>
        
        <mxCell id="product_service" value="Product Service\n4vCPU/8GB\n60M products" style="shape=mxgraph.aws4.fargate;labelPosition=bottom;verticalLabelPosition=top;align=center;verticalAlign=bottom;fillColor=#FFF3E0;strokeColor=#FF9800;fontColor=#E65100;" vertex="1" parent="1">
          <mxGeometry x="400" y="400" width="78" height="78" as="geometry" />
        </mxCell>
        
        <mxCell id="ocr_service" value="OCR Service\n4vCPU/8GB\nTextract integration" style="shape=mxgraph.aws4.fargate;labelPosition=bottom;verticalLabelPosition=top;align=center;verticalAlign=bottom;fillColor=#FFF3E0;strokeColor=#FF9800;fontColor=#E65100;" vertex="1" parent="1">
          <mxGeometry x="600" y="400" width="78" height="78" as="geometry" />
        </mxCell>
        
        
        <mxCell id="rds_primary" value="RDS Primary\nPostgreSQL 14\ndb.r6g.2xlarge\n35-day backup" style="shape=mxgraph.aws4.rds;labelPosition=bottom;verticalLabelPosition=top;align=center;verticalAlign=bottom;fillColor=#E8F5E8;strokeColor=#4CAF50;fontColor=#2E7D32;" vertex="1" parent="1">
          <mxGeometry x="300" y="600" width="78" height="78" as="geometry" />
        </mxCell>
        
        <mxCell id="redis_cache" value="ElastiCache Redis\n6 nodes (3 shards)\nMulti-AZ" style="shape=mxgraph.aws4.elasticache;labelPosition=bottom;verticalLabelPosition=top;align=center;verticalAlign=bottom;fillColor=#E8F5E8;strokeColor=#4CAF50;fontColor=#2E7D32;" vertex="1" parent="1">
          <mxGeometry x="500" y="600" width="78" height="78" as="geometry" />
        </mxCell>
        
        <mxCell id="s3_storage" value="S3 Documents\nIntelligent Tiering\n90d â†’ Glacier" style="shape=mxgraph.aws4.s3;labelPosition=bottom;verticalLabelPosition=top;align=center;verticalAlign=bottom;fillColor=#E8F5E8;strokeColor=#4CAF50;fontColor=#2E7D32;" vertex="1" parent="1">
          <mxGeometry x="750" y="150" width="78" height="78" as="geometry" />
        </mxCell>
        
        
        <mxCell id="conn1" style="edgeStyle=orthogonalEdgeStyle;rounded=0;orthogonalLoop=1;jettySize=auto;html=1;strokeColor=#1976D2;strokeWidth=2;" edge="1" parent="1" source="cloudfront" target="waf">
          <mxGeometry relative="1" as="geometry" />
        </mxCell>
        
        <mxCell id="conn2" style="edgeStyle=orthogonalEdgeStyle;rounded=0;orthogonalLoop=1;jettySize=auto;html=1;strokeColor=#1976D2;strokeWidth=2;" edge="1" parent="1" source="waf" target="api_gateway">
          <mxGeometry relative="1" as="geometry" />
        </mxCell>
        
        <mxCell id="conn3" style="edgeStyle=orthogonalEdgeStyle;rounded=0;orthogonalLoop=1;jettySize=auto;html=1;strokeColor=#FF9800;strokeWidth=2;" edge="1" parent="1" source="api_gateway" target="invoice_service">
          <mxGeometry relative="1" as="geometry" />
        </mxCell>
        
        <mxCell id="conn4" style="edgeStyle=orthogonalEdgeStyle;rounded=0;orthogonalLoop=1;jettySize=auto;html=1;strokeColor=#FF9800;strokeWidth=2;" edge="1" parent="1" source="api_gateway" target="product_service">
          <mxGeometry relative="1" as="geometry" />
        </mxCell>
        
        <mxCell id="conn5" style="edgeStyle=orthogonalEdgeStyle;rounded=0;orthogonalLoop=1;jettySize=auto;html=1;strokeColor=#FF9800;strokeWidth=2;" edge="1" parent="1" source="api_gateway" target="ocr_service">
          <mxGeometry relative="1" as="geometry" />
        </mxCell>
        
        <mxCell id="conn6" style="edgeStyle=orthogonalEdgeStyle;rounded=0;orthogonalLoop=1;jettySize=auto;html=1;strokeColor=#4CAF50;strokeWidth=2;" edge="1" parent="1" source="invoice_service" target="rds_primary">
          <mxGeometry relative="1" as="geometry" />
        </mxCell>
        
        <mxCell id="conn7" style="edgeStyle=orthogonalEdgeStyle;rounded=0;orthogonalLoop=1;jettySize=auto;html=1;strokeColor=#4CAF50;strokeWidth=2;" edge="1" parent="1" source="product_service" target="rds_primary">
          <mxGeometry relative="1" as="geometry" />
        </mxCell>
        
        <mxCell id="conn8" style="edgeStyle=orthogonalEdgeStyle;rounded=0;orthogonalLoop=1;jettySize=auto;html=1;strokeColor=#4CAF50;strokeWidth=2;" edge="1" parent="1" source="product_service" target="redis_cache">
          <mxGeometry relative="1" as="geometry" />
        </mxCell>
        
        <mxCell id="conn9" style="edgeStyle=orthogonalEdgeStyle;rounded=0;orthogonalLoop=1;jettySize=auto;html=1;strokeColor=#4CAF50;strokeWidth=2;" edge="1" parent="1" source="ocr_service" target="s3_storage">
          <mxGeometry relative="1" as="geometry" />
        </mxCell>
        
      </root>
    </mxGraphModel>
  </diagram>
</mxfile>